<svg width="228" height="39" viewBox="0 0 228 39" fill="none" xmlns="http://www.w3.org/2000/svg">
<path d="M1.15142 5.00636H4.02997C4.33334 5.01275 4.62251 5.13611 4.83707 5.35069C5.05163 5.56526 5.175 5.85445 5.18138 6.15783V15.3947C5.18777 15.6981 5.31113 15.9872 5.5257 16.2018C5.74026 16.4164 6.02943 16.5398 6.3328 16.5462H17.6467C17.9501 16.5398 18.2393 16.4164 18.4539 16.2018C18.6684 15.9872 18.7918 15.6981 18.7982 15.3947V6.08274C18.8077 5.93141 18.847 5.78346 18.9139 5.64738C18.9808 5.5113 19.0739 5.38976 19.1878 5.28975C19.3018 5.18974 19.4344 5.11322 19.578 5.06459C19.7216 5.01596 19.8734 4.99617 20.0247 5.00636H22.8281C23.1315 5.01275 23.4207 5.13611 23.6352 5.35069C23.8498 5.56526 23.9732 5.85445 23.9795 6.15783V32.9171C23.9732 33.2205 23.8498 33.5097 23.6352 33.7243C23.4207 33.9389 23.1315 34.0622 22.8281 34.0686H20.0247C19.8735 34.0686 19.7237 34.0388 19.584 33.981C19.4443 33.9231 19.3174 33.8383 19.2105 33.7314C19.1036 33.6244 19.0188 33.4975 18.9609 33.3578C18.903 33.2181 18.8733 33.0683 18.8733 32.9171V22.3786C18.8669 22.0752 18.7435 21.7861 18.5289 21.5715C18.3144 21.3569 18.0252 21.2335 17.7218 21.2271H6.3328C6.02943 21.2335 5.74026 21.3569 5.5257 21.5715C5.31113 21.7861 5.18777 22.0752 5.18138 22.3786V32.9171C5.175 33.2205 5.05163 33.5097 4.83707 33.7243C4.62251 33.9389 4.33334 34.0622 4.02997 34.0686H1.15142C0.848047 34.0622 0.558877 33.9389 0.344313 33.7243C0.12975 33.5097 0.00638888 33.2205 0 32.9171L0 6.08274C0.0247315 5.79265 0.156141 5.52203 0.368819 5.32321C0.581496 5.12439 0.860335 5.0115 1.15142 5.00636Z" fill="#FF0083"/>
<path d="M43.804 5.00647H60.8C61.1033 5.01286 61.3925 5.13623 61.6071 5.3508C61.8216 5.56537 61.945 5.85456 61.9514 6.15795V8.66116C61.945 8.96454 61.8216 9.25373 61.6071 9.4683C61.3925 9.68288 61.1033 9.80624 60.8 9.81263H48.9854C48.68 9.81263 48.3871 9.93395 48.1712 10.1499C47.9553 10.3658 47.834 10.6587 47.834 10.9641V15.6451C47.8404 15.9485 47.9637 16.2377 48.1783 16.4523C48.3928 16.6668 48.682 16.7902 48.9854 16.7966H60.0741C60.3794 16.7966 60.6723 16.9179 60.8882 17.1338C61.1042 17.3498 61.2255 17.6427 61.2255 17.9481V20.3261C61.2191 20.6295 61.0957 20.9187 60.8812 21.1333C60.6666 21.3478 60.3774 21.4712 60.0741 21.4776H48.9854C48.8342 21.4776 48.6845 21.5074 48.5448 21.5652C48.4051 21.6231 48.2781 21.7079 48.1712 21.8148C48.0643 21.9218 47.9795 22.0487 47.9216 22.1884C47.8638 22.3281 47.834 22.4778 47.834 22.6291V28.2112C47.834 28.5166 47.9553 28.8095 48.1712 29.0254C48.3871 29.2414 48.68 29.3627 48.9854 29.3627H61.5008C61.8062 29.3627 62.0991 29.484 62.315 29.7C62.5309 29.9159 62.6522 30.2088 62.6522 30.5142V33.0174C62.6522 33.3228 62.5309 33.6157 62.315 33.8316C62.0991 34.0475 61.8062 34.1689 61.5008 34.1689H43.804C43.5006 34.1625 43.2115 34.0391 42.9969 33.8245C42.7823 33.61 42.659 33.3208 42.6526 33.0174V6.08285C42.6773 5.79276 42.8087 5.52214 43.0214 5.32332C43.2341 5.12451 43.5129 5.01161 43.804 5.00647Z" fill="#FF0083"/>
<path d="M79.9485 6.08285C79.9733 5.79276 80.1047 5.52214 80.3174 5.32332C80.53 5.12451 80.8089 5.01161 81.1 5.00647H90.1111C91.4724 5.01085 92.8302 5.14496 94.1661 5.40698C95.384 5.61085 96.5545 6.03498 97.6203 6.65859C98.6558 7.26416 99.5179 8.12626 100.123 9.1618C100.767 10.4226 101.078 11.8273 101.025 13.242C101.092 15.1633 100.471 17.0455 99.2724 18.5488C98.352 19.6579 97.1101 20.4538 95.718 20.8268C95.5538 20.8831 95.4045 20.9759 95.2812 21.0981C95.1579 21.2204 95.0639 21.3689 95.0061 21.5326C94.9483 21.6963 94.9283 21.871 94.9476 22.0435C94.9668 22.216 95.0248 22.382 95.1172 22.5289L100.999 32.2915C101.107 32.4674 101.166 32.669 101.169 32.8752C101.172 33.0814 101.119 33.2846 101.017 33.4637C100.915 33.6427 100.766 33.791 100.587 33.893C100.408 33.9951 100.204 34.0471 99.9983 34.0437H96.3438C96.1379 34.0446 95.9357 33.9891 95.7592 33.8832C95.5827 33.7773 95.4386 33.625 95.3425 33.4429L89.235 22.3287C89.1389 22.1466 88.9948 21.9943 88.8183 21.8884C88.6418 21.7825 88.4396 21.727 88.2338 21.7279H86.2814C85.976 21.7279 85.6831 21.8492 85.4672 22.0652C85.2512 22.2811 85.1299 22.574 85.1299 22.8794V32.8922C85.1299 33.1976 85.0086 33.4905 84.7927 33.7064C84.5768 33.9224 84.2839 34.0437 83.9785 34.0437H81.1C80.7966 34.0373 80.5074 33.9139 80.2929 33.6994C80.0783 33.4848 79.9549 33.1956 79.9485 32.8922V6.08285ZM89.1599 17.2722C89.902 17.3096 90.6455 17.3096 91.3876 17.2722C92.0865 17.2187 92.7717 17.0495 93.4151 16.7716C94.0198 16.5343 94.5419 16.1253 94.917 15.595C95.3457 14.9253 95.5475 14.1354 95.4927 13.3422C95.5255 12.6209 95.3425 11.9062 94.9671 11.2895C94.6312 10.7389 94.1448 10.2959 93.5653 10.0129C92.9606 9.74946 92.319 9.58061 91.663 9.51225C90.9797 9.46323 90.2937 9.46323 89.6105 9.51225H86.2814C85.976 9.51225 85.6831 9.63356 85.4672 9.84951C85.2512 10.0654 85.1299 10.3583 85.1299 10.6637V16.1207C85.1299 16.4261 85.2512 16.719 85.4672 16.9349C85.6831 17.1509 85.976 17.2722 86.2814 17.2722H89.1599Z" fill="#FF0083"/>
<path d="M219.295 0H117.77C115.734 0.0328478 113.792 0.86489 112.364 2.31662C110.936 3.76835 110.135 5.72339 110.136 7.75995V31.2401C110.136 33.2981 110.953 35.2719 112.408 36.7272C113.864 38.1824 115.837 39 117.895 39H219.295C221.353 39 223.327 38.1824 224.782 36.7272C226.237 35.2719 227.055 33.2981 227.055 31.2401V7.75995C227.055 5.70188 226.237 3.72811 224.782 2.27284C223.327 0.817564 221.353 0 219.295 0ZM138.02 30.0385C137.533 31.0028 136.852 31.8553 136.018 32.5417C135.164 33.2553 134.177 33.7915 133.114 34.1187C132.014 34.4714 130.865 34.6488 129.71 34.6444C127.892 34.6676 126.088 34.3272 124.403 33.6431C122.706 32.9824 121.23 31.8541 120.148 30.389L122.651 28.6617C123.289 29.8374 124.254 30.8026 125.43 31.4403C126.628 32.0576 127.961 32.3672 129.309 32.3415C130.161 32.3371 131.007 32.1934 131.812 31.9159C132.568 31.6582 133.271 31.2684 133.89 30.7644C134.494 30.255 134.978 29.6182 135.307 28.8998C135.635 28.1814 135.801 27.3992 135.792 26.6091C135.831 25.7317 135.613 24.862 135.167 24.1059C134.792 23.4814 134.288 22.9438 133.69 22.5289C132.9 22.0748 132.06 21.7136 131.187 21.4525L128.433 20.5263C127.497 20.2366 126.578 19.894 125.68 19.5C124.768 19.1416 123.922 18.634 123.177 17.9981C122.442 17.3699 121.86 16.5822 121.475 15.6951C121.017 14.6023 120.795 13.4252 120.824 12.2407C120.796 11.043 121.062 9.85675 121.6 8.78626C122.083 7.8056 122.785 6.94915 123.652 6.28306C124.542 5.5935 125.552 5.07568 126.631 4.7561C127.778 4.42366 128.966 4.25511 130.16 4.25546C131.739 4.18888 133.315 4.44439 134.791 5.00642C136.195 5.6121 137.407 6.59026 138.295 7.83505L135.968 9.5122C135.312 8.61001 134.455 7.87296 133.464 7.35944C132.445 6.85902 131.321 6.6101 130.185 6.63351C129.339 6.63411 128.497 6.75204 127.682 6.98395C126.934 7.198 126.23 7.5457 125.605 8.01027C125 8.46557 124.511 9.05739 124.178 9.73748C123.796 10.5149 123.616 11.3755 123.652 12.2407C123.574 13.4512 123.969 14.6448 124.754 15.57C125.575 16.3797 126.567 16.9955 127.657 17.3723C128.841 17.8475 130.053 18.2488 131.287 18.5738C132.529 18.9253 133.73 19.4122 134.866 20.0257C135.989 20.6124 136.944 21.4735 137.645 22.5289C138.461 23.7925 138.855 25.2824 138.771 26.7843C138.757 27.9104 138.501 29.0204 138.02 30.0385ZM164.052 7.50963H155.191C154.886 7.50963 154.593 7.63094 154.377 7.84689C154.161 8.06283 154.04 8.35571 154.04 8.6611V34.0687H151.387V8.56098C151.361 8.26441 151.222 7.98926 150.998 7.79325C150.774 7.59723 150.482 7.49559 150.185 7.50963H141.424V5.00642H163.952L164.052 7.50963ZM187.005 34.1688H169.684C169.381 34.1624 169.092 34.0391 168.877 33.8245C168.662 33.6099 168.539 33.3207 168.533 33.0173V6.0828C168.557 5.79271 168.689 5.52209 168.902 5.32327C169.114 5.12446 169.393 5.01156 169.684 5.00642H186.355V7.50963H172.387C172.237 7.50959 172.089 7.53954 171.951 7.5977C171.812 7.65587 171.687 7.74109 171.582 7.84836C171.477 7.95562 171.395 8.08277 171.34 8.22234C171.284 8.36191 171.258 8.51108 171.261 8.6611V16.6213C171.261 16.9224 171.379 17.2116 171.589 17.4268C171.8 17.642 172.086 17.7662 172.387 17.7728H185.404V20.276H172.387C172.237 20.276 172.089 20.3059 171.951 20.3641C171.812 20.4222 171.687 20.5075 171.582 20.6147C171.477 20.722 171.395 20.8491 171.34 20.9887C171.284 21.1283 171.258 21.2775 171.261 21.4275V30.4641C171.258 30.6141 171.284 30.7633 171.34 30.9028C171.395 31.0424 171.477 31.1695 171.582 31.2768C171.687 31.3841 171.812 31.4693 171.951 31.5275C172.089 31.5856 172.237 31.6156 172.387 31.6155H187.005V34.1688ZM209.984 16.1457C209.524 17.0709 208.856 17.8765 208.031 18.4987C207.196 19.0982 206.252 19.5316 205.253 19.7754C204.173 20.0978 203.051 20.258 201.924 20.251H196.918C196.766 20.2475 196.614 20.275 196.473 20.3316C196.332 20.3883 196.204 20.473 196.096 20.5806C195.988 20.6882 195.904 20.8165 195.847 20.9578C195.79 21.099 195.763 21.2503 195.766 21.4024V34.0687H192.913V6.0828C192.937 5.79271 193.069 5.52209 193.282 5.32327C193.494 5.12446 193.773 5.01156 194.064 5.00642H201.323C202.392 5.01707 203.457 5.13447 204.502 5.35687C205.581 5.59449 206.612 6.00894 207.556 6.58344C208.481 7.17996 209.253 7.98607 209.809 8.93646C210.439 10.0931 210.742 11.4001 210.685 12.7163C210.709 13.8651 210.469 15.0041 209.984 16.0456V16.1457ZM205.979 8.63607C205.367 8.20356 204.679 7.88942 203.951 7.70988C203.193 7.55869 202.421 7.49153 201.649 7.50963H196.793C196.64 7.50621 196.489 7.53365 196.348 7.59031C196.207 7.64697 196.078 7.73166 195.971 7.83927C195.863 7.94689 195.778 8.07519 195.722 8.21644C195.665 8.35769 195.638 8.50895 195.641 8.6611V16.6213C195.641 16.9267 195.762 17.2196 195.978 17.4355C196.194 17.6515 196.487 17.7728 196.793 17.7728H201.799C202.565 17.7768 203.329 17.6928 204.077 17.5225C204.783 17.3634 205.453 17.0748 206.054 16.6714C206.642 16.2359 207.122 15.6705 207.456 15.0193C207.837 14.2419 208.018 13.3813 207.981 12.516C208.018 11.648 207.828 10.7853 207.431 10.0128C207.047 9.45186 206.553 8.97491 205.979 8.61104V8.63607Z" fill="#FF0083"/>
</svg>
