<svg width="450" height="300" viewBox="0 0 450 300" fill="none" xmlns="http://www.w3.org/2000/svg">
<path d="M392.121 154.337C392.6 164.012 390.331 173.627 385.567 182.11C380.804 190.594 373.733 197.612 365.144 202.382C358.222 206.202 350.567 208.569 342.664 209.333C334.769 210.188 326.833 210.63 318.89 210.657C306.02 210.657 292.981 210.27 280.055 210.657C273.928 210.657 267.802 211.153 261.227 211.539C258.315 211.744 255.575 212.972 253.511 214.998C251.447 217.025 250.195 219.713 249.986 222.571C249.537 232.942 249.031 242.981 248.525 253.572C248.325 256.577 246.962 259.393 244.715 261.443C242.469 263.494 239.51 264.625 236.442 264.604H176.362C173.239 264.606 170.238 263.416 167.993 261.285C165.749 259.154 164.437 256.249 164.335 253.186V137.733C164.335 134.597 163.069 131.589 160.815 129.367C158.561 127.144 155.502 125.888 152.307 125.874H91.272C88.0673 125.874 84.9938 127.123 82.7278 129.347C80.4617 131.571 79.1886 134.588 79.1886 137.733V253.848C79.1886 256.979 77.9214 259.981 75.6659 262.195C73.4104 264.409 70.3512 265.653 67.1614 265.653H12.0834C10.4993 265.66 8.92925 265.36 7.46355 264.77C5.99785 264.18 4.66533 263.311 3.54254 262.215C2.41975 261.118 1.5288 259.814 0.920866 258.378C0.31293 256.942 -1.72954e-05 255.403 7.16914e-10 253.848V-83.9605C0.0147816 -87.1014 1.2926 -90.1095 3.55549 -92.3305C5.81837 -94.5515 8.88326 -95.8057 12.0834 -95.8202H66.487C69.6917 -95.8202 72.7651 -94.5707 75.0312 -92.3466C77.2973 -90.1224 78.5704 -87.1059 78.5704 -83.9605V31.5475C78.5404 33.1208 78.8312 34.6841 79.4257 36.1456C80.0202 37.607 80.9064 38.937 82.0322 40.0573C83.1581 41.1777 84.5007 42.0659 85.9813 42.6696C87.4619 43.2733 89.0506 43.5803 90.6538 43.5727H151.296C154.486 43.5727 157.545 42.329 159.8 40.1152C162.056 37.9014 163.323 34.8989 163.323 31.7682V-83.2986C163.323 -84.8534 163.636 -86.3929 164.244 -87.8287C164.852 -89.2645 165.743 -90.5683 166.866 -91.6652C167.988 -92.7621 169.321 -93.6304 170.787 -94.2204C172.252 -94.8104 173.822 -95.1104 175.406 -95.1031H207.61C210.582 -95.1187 213.454 -94.0488 215.666 -92.1014C217.879 -90.1541 219.274 -87.4685 219.581 -84.5673C219.915 -81.4789 219.001 -78.3852 217.036 -75.951C215.071 -73.5168 212.211 -71.9363 209.071 -71.5492L203.451 -70.8321C200.525 -70.4959 197.824 -69.1217 195.858 -66.9681C193.891 -64.8144 192.794 -62.0298 192.773 -59.1379V57.5285C192.78 59.0834 192.475 60.6243 191.873 62.0629C191.272 63.5014 190.388 64.8093 189.27 65.9113C188.152 67.0133 186.824 67.8877 185.361 68.4844C183.898 69.0811 182.33 69.3882 180.746 69.3882H66.0373C62.8372 69.3737 59.7723 68.1196 57.5094 65.8986C55.2465 63.6776 53.9687 60.6694 53.9539 57.5285V-57.814C53.9613 -59.3642 53.6575 -60.9006 53.0599 -62.3356C52.4623 -63.7706 51.5826 -65.076 50.471 -66.1772C49.3594 -67.2785 48.0376 -68.1541 46.5812 -68.754C45.1249 -69.354 43.5623 -69.6665 41.9829 -69.6737H38.7232C37.1343 -69.681 35.5596 -69.3792 34.0902 -68.7858C32.6209 -68.1924 31.2858 -67.3191 30.1623 -66.2163C29.0388 -65.1136 28.149 -63.8033 27.5444 -62.3611C26.9398 -60.9189 26.6323 -59.3735 26.6397 -57.814V228.419C26.6266 231.296 27.6798 234.08 29.603 236.252C31.5262 238.424 34.1884 239.835 37.0933 240.223C47.8841 241.657 53.5043 236.362 53.2233 220.365C52.6051 184.4 52.9423 148.655 53.2233 111.476C53.2233 108.331 54.4964 105.314 56.7624 103.09C59.0285 100.866 62.102 99.6167 65.3067 99.6167H179.79C182.995 99.6167 186.068 100.866 188.334 103.09C190.601 105.314 191.874 108.331 191.874 111.476V227.315C191.88 230.313 193.043 233.197 195.129 235.387C197.214 237.577 200.067 238.911 203.114 239.12H207.723C209.347 239.179 210.967 238.916 212.485 238.347C214.003 237.778 215.389 236.913 216.559 235.806C217.729 234.699 218.66 233.371 219.295 231.903C219.93 230.435 220.257 228.855 220.256 227.26V196.48C220.27 193.33 221.556 190.313 223.831 188.091C226.106 185.868 229.185 184.62 232.395 184.62C262.238 184.62 290.564 184.62 318.89 184.62H321.082C341.315 184.62 361.098 182.855 363.346 158.088C365.819 131.114 345.698 127.197 324.004 124.991C322.206 124.991 320.408 124.605 318.384 124.329C261.339 115.613 218.626 66.3544 221.661 11.4688C224.696 -43.4168 264.43 -86.6634 319.171 -93.3379C323.176 -93.8945 327.211 -94.226 331.255 -94.3308C331.255 -94.3308 331.255 -91.4073 331.255 -87.3805C331.255 -80.9818 331.255 -72.1008 331.255 -68.0188L324.679 -67.1914C322.88 -67.1914 321.026 -66.6398 319.059 -66.2537C299.189 -63.0227 281.17 -52.876 268.299 -37.671C255.429 -22.466 248.569 -3.22002 248.975 16.5436C249.986 55.1566 278.537 88.2534 319.002 98.017C321.588 98.6789 324.229 99.2305 326.927 99.6718C331.592 100.389 336.425 100.003 341.146 100.61C349.511 101.563 357.606 104.111 364.976 108.112C373.336 112.688 380.275 119.404 385.055 127.544C389.835 135.683 392.277 144.943 392.121 154.337Z" fill="white" fill-opacity="0.5"/>
<path d="M365.144 262.177C361.244 263.291 357.285 264.193 353.285 264.88C353.285 264.218 353.285 263.17 353.285 261.846V260.412C353.285 252.303 353.285 237.741 352.779 236.913L354.915 236.527C358.486 235.779 362.014 234.84 365.481 233.714C403.024 221.744 423.481 191.24 422.189 152.461C422.01 135.545 416.401 119.114 406.16 105.507C395.918 91.8997 381.566 81.8087 365.144 76.6695C359.873 74.8569 354.459 73.4732 348.957 72.5323C338.932 71.0652 328.99 69.0952 319.17 66.6301C302.31 61.831 288.653 53.1155 282.527 31.051C273.928 0.436409 289.721 -29.2404 319.17 -36.6872C322.846 -37.6427 326.613 -38.2159 330.411 -38.3972C341.988 -39.004 353.51 -39.2246 365.256 -39.2246C379.475 -39.2246 393.919 -38.8937 408.7 -38.7833C411.768 -38.7628 414.728 -39.8937 416.974 -41.9445C419.22 -43.9953 420.583 -46.811 420.784 -49.8156L421.627 -64.3231C418.423 -66.695 416.962 -68.736 415.444 -68.736C398.584 -68.736 382.004 -69.2876 365.256 -69.2324H353.285V-94.3309V-94.9928H365.425C388.467 -94.9928 411.735 -94.9928 435.677 -94.9928C438.872 -94.9782 441.931 -93.7223 444.185 -91.4997C446.439 -89.2772 447.704 -86.269 447.704 -83.1331V-26.372C447.712 -24.8079 447.403 -23.2578 446.794 -21.812C446.186 -20.3662 445.292 -19.0534 444.162 -17.9499C443.033 -16.8465 441.691 -15.9743 440.215 -15.3842C438.739 -14.7941 437.158 -14.4977 435.565 -14.5123C412.353 -14.5123 388.917 -15.0639 365.425 -14.5123C360.254 -14.5123 355.083 -14.1814 349.913 -13.9607C339.178 -13.5015 328.72 -10.4714 319.451 -5.13488C317.603 -4.13754 315.854 -2.97419 314.225 -1.65973C308.604 2.64286 306.694 20.4048 311.021 25.0936C313.615 27.8697 316.434 30.434 319.451 32.761C326.865 38.7888 335.76 42.8022 345.248 44.4001C352.047 45.1848 358.786 46.4009 365.425 48.0407C383.414 52.0309 400.026 60.5705 413.612 72.8115C427.198 85.0525 437.285 100.569 442.871 117.82C466.251 182.359 430.001 244.25 365.144 262.177Z" fill="white" fill-opacity="0.5"/>
<path d="M365.144 233.659V276.74C365.144 279.702 364.55 282.636 363.395 285.373C362.24 288.111 360.546 290.598 358.412 292.693C356.277 294.788 353.743 296.45 350.954 297.583C348.166 298.717 345.177 299.301 342.158 299.301C339.139 299.301 336.15 298.717 333.361 297.583C330.572 296.45 328.038 294.788 325.904 292.693C323.769 290.598 322.076 288.111 320.921 285.373C319.766 282.636 319.171 279.702 319.171 276.74V240.499H322.206H325.185L330.805 240.057L331.198 266.369V268.631C331.348 269.924 331.758 271.175 332.404 272.312C333.051 273.448 333.921 274.447 334.964 275.25C337.045 277.124 339.785 278.133 342.608 278.064C343.995 278.086 345.373 277.839 346.664 277.338C347.954 276.837 349.132 276.091 350.129 275.144C351.125 274.196 351.922 273.065 352.474 271.815C353.025 270.565 353.32 269.221 353.342 267.859V264.715C353.342 263.832 353.342 262.177 353.342 260.246C353.342 252.138 353.342 237.575 352.836 236.748L354.972 236.362C358.409 235.636 361.804 234.734 365.144 233.659Z" fill="white" fill-opacity="0.5"/>
</svg>
